<?xml version="1.0" standalone="no"?>
<!DOCTYPE svg PUBLIC "-//W3C//DTD SVG 20010904//EN"
 "http://www.w3.org/TR/2001/REC-SVG-20010904/DTD/svg10.dtd">
<svg version="1.0" xmlns="http://www.w3.org/2000/svg"
 width="706.000000pt" height="394.000000pt" viewBox="0 0 706.000000 394.000000"
 preserveAspectRatio="xMidYMid meet">

<g transform="translate(0.000000,394.000000) scale(0.100000,-0.100000)"
fill="#000000" stroke="none">
<path d="M1733 3620 c-47 -19 -50 -37 -56 -344 l-6 -289 -116 -116 -115 -115
0 -294 c0 -190 3 -291 10 -287 6 4 10 116 10 293 l0 286 102 103 103 103 8
-92 c4 -51 4 -131 1 -178 l-6 -85 -84 -88 -84 -87 2 -128 2 -127 3 126 4 125
78 78 78 78 7 -73 c3 -40 6 -298 6 -574 l-1 -500 1752 -3 c1149 -1 1756 -5
1763 -12 6 -6 69 -10 147 -10 131 0 139 1 166 24 26 23 28 30 32 116 6 164
-14 180 -224 180 -133 0 -135 0 -136 23 -1 12 0 420 1 907 2 706 -1 891 -11
913 -28 61 85 57 -1741 56 -942 0 -1683 -4 -1695 -9z m3337 -225 l0 -45 -545
0 -545 0 0 -285 0 -285 129 0 129 0 7 28 c3 15 14 35 22 44 15 17 83 40 156
52 l37 7 0 60 c0 60 -8 82 -47 132 -23 28 -21 62 3 53 7 -3 16 4 20 17 20 66
90 71 151 11 20 -20 39 -31 48 -28 11 5 15 -1 15 -19 0 -14 -5 -29 -10 -32 -6
-4 -22 -25 -36 -47 -23 -36 -25 -47 -19 -94 6 -52 7 -54 43 -60 72 -12 140
-35 155 -52 8 -9 19 -29 22 -44 l7 -28 128 0 127 0 8 -569 c4 -313 5 -573 2
-578 -3 -4 -252 -7 -554 -7 -301 1 -1040 2 -1640 3 l-1093 1 0 575 0 574 128
3 c122 3 127 4 130 25 6 38 46 66 129 88 l78 20 3 49 c3 52 -11 99 -40 130
-26 29 -22 55 10 67 15 5 36 21 48 35 11 13 33 27 50 30 16 2 34 6 41 9 14 5
53 -41 53 -61 0 -8 7 -14 15 -14 25 0 29 -29 8 -58 -41 -55 -50 -85 -44 -137
l6 -49 75 -21 c99 -28 118 -39 128 -78 l8 -32 127 -3 127 -3 0 286 0 285 -545
0 -545 0 0 45 0 45 1645 0 1645 0 0 -45z m407 -1727 c20 -19 23 -31 23 -100 0
-71 -3 -82 -25 -104 -24 -24 -27 -25 -162 -22 l-138 3 -3 109 c-1 61 0 116 2
123 4 10 38 13 143 13 127 0 138 -2 160 -22z"/>
<path d="M3339 3281 c-24 -25 -29 -37 -29 -80 0 -28 5 -51 10 -51 6 0 10 5 10
10 0 6 6 10 13 10 8 0 22 9 31 19 14 15 29 18 74 17 51 -3 58 -6 70 -29 18
-37 32 -34 32 8 0 46 -23 101 -48 114 -12 6 -46 11 -77 11 -49 0 -60 -4 -86
-29z"/>
<path d="M3477 2993 c-5 -7 -24 -13 -43 -13 -40 0 -38 -12 7 -36 43 -22 55
-15 49 26 -3 23 -8 31 -13 23z"/>
<path d="M2269 2672 c-26 -23 -33 -38 -37 -80 -2 -29 -2 -52 1 -52 21 0 61 28
73 52 10 19 22 28 39 28 13 0 35 4 49 10 21 8 28 5 46 -17 11 -14 23 -37 26
-50 10 -37 24 -27 24 17 0 84 -40 120 -134 120 -47 0 -61 -4 -87 -28z"/>
<path d="M2206 2451 c-9 -10 -25 -41 -36 -67 -19 -51 -37 -164 -26 -164 12 0
91 42 109 58 32 28 18 177 -19 189 -6 2 -18 -5 -28 -16z"/>
<path d="M4550 2415 l-25 -14 25 -9 c19 -7 26 -6 28 4 6 26 -3 33 -28 19z"/>
<path d="M4417 2319 c-3 -8 -9 -38 -14 -66 l-10 -53 27 0 c15 0 29 2 32 5 7 7
-13 108 -23 119 -5 6 -10 3 -12 -5z"/>
<path d="M4616 2313 c-3 -10 -8 -39 -12 -65 l-6 -48 32 0 c26 0 31 3 26 17 -4
9 -10 37 -13 60 -6 47 -19 64 -27 36z"/>
<path d="M4457 2133 c-40 -29 -61 -80 -48 -116 8 -20 10 -19 24 14 20 47 27
51 86 43 36 -5 52 -12 56 -24 7 -21 54 -55 63 -45 4 4 6 28 5 53 -1 39 -7 52
-32 74 -42 38 -102 38 -154 1z"/>
<path d="M2222 2005 c0 -16 2 -22 5 -12 2 9 2 23 0 30 -3 6 -5 -1 -5 -18z"/>
<path d="M2223 1890 c0 -47 2 -66 4 -42 2 23 2 61 0 85 -2 23 -4 4 -4 -43z"/>
<path d="M4540 1820 l-35 -5 40 -17 c35 -14 40 -14 43 -1 6 23 -9 30 -48 23z"/>
<path d="M1132 3133 l208 -208 3 -380 2 -380 3 385 2 385 -203 203 c-111 111
-207 202 -212 202 -5 0 83 -93 197 -207z"/>
<path d="M5852 3080 c-42 -9 -152 -54 -152 -63 0 -6 50 3 75 12 44 17 89 30
92 27 8 -7 -25 -65 -58 -104 -36 -42 -68 -54 -70 -27 -1 8 -2 21 -3 28 -1 17
-37 30 -50 17 -10 -10 -2 -21 29 -34 6 -3 5 -8 -2 -13 -10 -7 -8 -18 7 -48 20
-40 18 -60 -6 -51 -8 3 -13 2 -11 -2 1 -4 -8 -18 -20 -32 -13 -13 -23 -31 -23
-41 0 -9 -7 -22 -15 -29 -27 -22 -18 -40 21 -40 22 0 33 -4 29 -11 -9 -13 -55
-8 -76 8 -13 11 -20 10 -43 -8 -27 -21 -26 -45 2 -34 14 5 62 -30 62 -46 0 -4
-14 -4 -31 1 -32 10 -59 4 -59 -12 0 -6 12 -33 26 -62 39 -79 121 -156 195
-184 l26 -10 -36 74 c-25 52 -43 76 -59 80 -30 8 -42 33 -42 88 0 36 4 48 21
56 22 12 95 5 105 -11 3 -5 24 -9 46 -9 l41 0 -6 -74 c-3 -40 -13 -96 -23
-123 -17 -48 -17 -50 2 -76 16 -23 26 -26 74 -27 251 0 441 230 390 474 -12
58 -41 101 -63 93 -7 -2 -11 -12 -9 -22 2 -9 -7 -28 -19 -41 -20 -21 -21 -24
-5 -24 15 0 17 -5 11 -22 -4 -13 -10 -44 -12 -71 -4 -40 -3 -46 11 -41 13 5
16 -1 16 -24 0 -17 -4 -34 -10 -37 -5 -3 -10 1 -10 9 0 24 -15 26 -17 3 -3
-43 -22 -76 -48 -83 -29 -7 -49 12 -60 56 -4 14 -19 44 -33 67 -27 42 -27 42
-77 37 -27 -3 -57 -1 -64 5 -16 11 -17 75 -1 116 5 13 5 27 1 29 -12 8 -11 56
1 56 5 0 8 6 6 13 -3 6 -10 12 -15 12 -20 0 -25 13 -13 35 11 21 12 21 31 4
11 -10 19 -12 19 -6 0 7 8 12 19 12 25 0 48 27 34 41 -8 8 -11 6 -10 -7 2 -14
-6 -20 -30 -22 -40 -4 -40 0 -7 43 18 24 36 35 65 40 73 12 43 28 -76 39 -27
3 -69 1 -93 -4z m75 -26 c-9 -9 -28 6 -21 18 4 6 10 6 17 -1 6 -6 8 -13 4 -17z
m-67 -104 c0 -5 -6 -10 -14 -10 -8 0 -18 5 -21 10 -3 6 3 10 14 10 12 0 21 -4
21 -10z"/>
<path d="M690 3022 c0 -4 133 -140 295 -302 l294 -294 4 -131 3 -130 2 140 2
140 -293 293 c-160 160 -295 292 -300 292 -4 0 -7 -3 -7 -8z"/>
<path d="M5650 2904 c0 -5 -10 -14 -22 -19 -30 -14 -35 -35 -9 -35 21 0 49 46
36 58 -3 3 -5 1 -5 -4z"/>
<path d="M5969 2859 c-10 -19 -9 -20 13 -14 29 9 31 11 23 24 -10 17 -23 13
-36 -10z"/>
<path d="M6043 2869 c-25 -9 -31 -29 -9 -29 21 0 76 21 76 30 0 10 -39 10 -67
-1z"/>
<path d="M6140 2815 c13 -14 26 -25 28 -25 3 0 -5 11 -18 25 -13 14 -26 25
-28 25 -3 0 5 -11 18 -25z"/>
<path d="M260 1953 c0 -5 34 -95 77 -200 48 -120 82 -193 91 -193 7 0 12 3 10
8 -23 43 -64 141 -109 254 -47 119 -68 160 -69 131z"/>
<path d="M338 1573 c7 -3 16 -2 19 1 4 3 -2 6 -13 5 -11 0 -14 -3 -6 -6z"/>
<path d="M738 1573 c7 -3 16 -2 19 1 4 3 -2 6 -13 5 -11 0 -14 -3 -6 -6z"/>
<path d="M1875 1340 c-4 -6 31 -10 99 -10 59 0 108 4 111 10 4 6 -31 10 -99
10 -59 0 -108 -4 -111 -10z"/>
<path d="M2445 1340 c-4 -6 32 -10 99 -10 64 0 106 4 106 10 0 6 -40 10 -99
10 -56 0 -103 -4 -106 -10z"/>
<path d="M2705 1340 c-4 -6 31 -10 99 -10 59 0 108 4 111 10 4 6 -31 10 -99
10 -59 0 -108 -4 -111 -10z"/>
<path d="M2975 1340 c-4 -6 32 -10 99 -10 64 0 106 4 106 10 0 6 -40 10 -99
10 -56 0 -103 -4 -106 -10z"/>
<path d="M3340 1340 c0 -6 42 -10 105 -10 63 0 105 4 105 10 0 6 -42 10 -105
10 -63 0 -105 -4 -105 -10z"/>
<path d="M3605 1340 c-4 -6 32 -10 99 -10 64 0 106 4 106 10 0 6 -40 10 -99
10 -56 0 -103 -4 -106 -10z"/>
<path d="M3870 1340 c0 -6 42 -10 105 -10 63 0 105 4 105 10 0 6 -42 10 -105
10 -63 0 -105 -4 -105 -10z"/>
<path d="M4240 1340 c0 -6 42 -10 105 -10 63 0 105 4 105 10 0 6 -42 10 -105
10 -63 0 -105 -4 -105 -10z"/>
<path d="M4510 1340 c0 -6 40 -10 100 -10 60 0 100 4 100 10 0 6 -40 10 -100
10 -60 0 -100 -4 -100 -10z"/>
<path d="M4770 1340 c0 -6 42 -10 106 -10 67 0 103 4 99 10 -3 6 -50 10 -106
10 -59 0 -99 -4 -99 -10z"/>
<path d="M1845 1300 c-18 -20 -17 -20 91 -20 104 0 134 7 134 32 0 4 -47 8
-103 8 -91 0 -106 -2 -122 -20z"/>
<path d="M2134 1303 c-17 -17 -13 -18 86 -21 114 -3 130 0 130 23 0 24 -192
22 -216 -2z"/>
<path d="M2400 1300 c-11 -20 -9 -21 102 -18 98 3 113 5 116 21 3 15 -7 17
-102 17 -96 0 -106 -2 -116 -20z"/>
<path d="M2677 1313 c-4 -3 -7 -12 -7 -20 0 -11 22 -13 107 -11 93 3 108 5
111 21 3 15 -7 17 -101 17 -57 0 -107 -3 -110 -7z"/>
<path d="M2947 1313 c-4 -3 -7 -12 -7 -20 0 -11 22 -13 107 -11 93 3 108 5
111 21 3 15 -7 17 -101 17 -57 0 -107 -3 -110 -7z"/>
<path d="M3217 1313 c-4 -3 -7 -12 -7 -20 0 -20 206 -19 213 1 3 8 3 17 0 20
-9 8 -198 8 -206 -1z"/>
<path d="M3487 1313 c-4 -3 -7 -12 -7 -20 0 -10 25 -13 111 -13 97 0 110 2
105 16 -3 9 -6 18 -6 20 0 7 -196 4 -203 -3z"/>
<path d="M3750 1300 c0 -19 7 -20 111 -20 97 0 110 2 105 16 -3 9 -6 18 -6 20
0 2 -47 4 -105 4 -98 0 -105 -1 -105 -20z"/>
<path d="M4020 1300 c0 -19 7 -20 111 -20 97 0 110 2 105 16 -3 9 -6 18 -6 20
0 2 -47 4 -105 4 -98 0 -105 -1 -105 -20z"/>
<path d="M4292 1303 c3 -16 18 -18 112 -21 96 -2 108 -1 102 13 -3 9 -6 19 -6
21 0 2 -48 4 -106 4 -95 0 -105 -2 -102 -17z"/>
<path d="M4574 1304 c3 -9 6 -18 6 -20 0 -2 99 -4 220 -4 218 0 221 0 210 20
-10 19 -21 20 -226 20 -193 0 -215 -2 -210 -16z"/>
<path d="M1824 1260 c-12 -4 -24 -15 -27 -24 -6 -14 13 -16 166 -16 158 0 173
2 184 19 7 10 9 22 6 25 -10 9 -305 6 -329 -4z"/>
<path d="M2228 1248 l-23 -23 110 -3 c95 -2 111 0 122 15 7 9 13 20 13 25 0 4
-45 8 -100 8 -90 0 -102 -2 -122 -22z"/>
<path d="M2520 1263 c-16 -6 -30 -23 -30 -36 0 -4 51 -6 113 -5 108 3 112 4
115 26 3 21 1 22 -90 21 -51 0 -100 -3 -108 -6z"/>
<path d="M2788 1259 c-10 -5 -18 -17 -18 -24 0 -23 215 -22 224 1 3 9 4 20 0
25 -7 12 -185 11 -206 -2z"/>
<path d="M3063 1263 c-7 -2 -13 -13 -13 -24 0 -18 8 -19 110 -19 l110 0 0 25
0 25 -97 -1 c-54 0 -104 -3 -110 -6z"/>
<path d="M3343 1264 c-7 -3 -13 -14 -13 -25 0 -18 8 -19 111 -19 109 0 110 0
107 23 -3 21 -8 22 -98 24 -52 1 -101 -1 -107 -3z"/>
<path d="M3611 1261 c-8 -5 -11 -16 -8 -25 5 -13 24 -16 110 -16 57 0 106 3
109 6 3 3 4 14 1 25 -5 17 -15 19 -102 19 -53 0 -102 -4 -110 -9z"/>
<path d="M3893 1263 c-7 -2 -13 -13 -13 -24 0 -18 8 -19 108 -19 60 0 112 3
115 6 3 4 2 15 -4 25 -8 17 -22 19 -102 18 -51 0 -98 -3 -104 -6z"/>
<path d="M4164 1264 c-7 -3 -10 -14 -7 -24 5 -18 15 -20 114 -20 60 0 109 4
109 9 0 37 -11 41 -109 40 -53 0 -101 -3 -107 -5z"/>
<path d="M4442 1262 c-7 -5 -10 -16 -6 -25 5 -14 23 -17 115 -17 111 0 128 7
97 38 -14 14 -185 17 -206 4z"/>
<path d="M4733 1263 c-9 -3 -10 -10 -3 -24 10 -18 23 -19 170 -19 88 0 160 4
160 8 0 5 -8 16 -18 25 -16 14 -42 17 -158 16 -76 0 -145 -3 -151 -6z"/>
<path d="M1767 1192 c-10 -10 -17 -22 -17 -25 0 -4 114 -7 254 -7 218 0 257 2
270 16 9 8 16 20 16 25 0 5 -104 9 -253 9 -233 0 -255 -1 -270 -18z"/>
<path d="M2360 1191 c-5 -11 -10 -22 -10 -25 0 -3 49 -6 110 -6 98 0 110 2
120 19 5 11 10 22 10 25 0 3 -49 6 -110 6 -98 0 -110 -2 -120 -19z"/>
<path d="M2641 1188 c-8 -23 -8 -23 96 -26 106 -3 133 4 133 34 0 11 -23 14
-110 14 -106 0 -111 -1 -119 -22z"/>
<path d="M2926 1194 c-12 -32 -5 -35 107 -32 108 3 112 4 115 26 3 22 2 22
-106 22 -91 0 -111 -3 -116 -16z"/>
<path d="M3210 1185 l0 -26 113 3 c104 3 112 4 112 23 0 19 -8 20 -112 23
l-113 3 0 -26z"/>
<path d="M3497 1203 c-4 -3 -7 -15 -7 -25 0 -17 8 -18 113 -16 108 3 112 4
115 26 3 22 2 22 -106 22 -60 0 -112 -3 -115 -7z"/>
<path d="M3778 1204 c-3 -3 -4 -14 -1 -25 5 -17 15 -19 112 -19 59 0 110 3
113 6 3 3 4 14 1 25 -5 17 -15 19 -112 19 -59 0 -110 -3 -113 -6z"/>
<path d="M4062 1188 c3 -22 7 -23 116 -26 66 -1 112 1 112 7 0 37 -11 41 -122
41 -108 0 -109 0 -106 -22z"/>
<path d="M4340 1201 c0 -37 11 -41 119 -41 59 0 111 3 114 6 3 4 2 15 -4 25
-9 17 -23 19 -119 19 -61 0 -110 -4 -110 -9z"/>
<path d="M4640 1204 c0 -3 5 -14 10 -25 10 -18 23 -19 230 -19 121 0 220 3
220 6 0 3 -5 14 -10 25 -10 18 -23 19 -230 19 -121 0 -220 -3 -220 -6z"/>
<path d="M1716 1125 l-16 -25 314 0 c301 0 316 1 326 19 5 11 10 22 10 25 0 3
-139 6 -309 6 l-309 0 -16 -25z"/>
<path d="M2421 1128 c-8 -23 -8 -23 103 -26 95 -2 112 0 123 15 7 9 13 20 13
25 0 4 -52 8 -115 8 -111 0 -116 -1 -124 -22z"/>
<path d="M2711 1128 c-8 -23 -8 -23 107 -26 63 -1 116 -1 117 0 1 2 6 13 9 26
7 22 7 22 -109 22 -111 0 -116 -1 -124 -22z"/>
<path d="M3007 1143 c-4 -3 -7 -15 -7 -25 0 -17 8 -18 118 -16 113 3 117 4
120 26 3 22 2 22 -111 22 -62 0 -117 -3 -120 -7z"/>
<path d="M3296 1134 c-12 -33 -5 -35 112 -32 113 3 117 4 120 26 3 22 2 22
-111 22 -96 0 -116 -3 -121 -16z"/>
<path d="M3590 1125 l0 -25 115 0 115 0 0 25 0 25 -115 0 -115 0 0 -25z"/>
<path d="M3880 1125 l0 -25 115 0 115 0 0 25 0 25 -115 0 -115 0 0 -25z"/>
<path d="M4172 1128 c3 -22 7 -23 122 -26 106 -2 118 -1 112 13 -3 9 -6 21 -6
26 0 5 -52 9 -116 9 -114 0 -115 0 -112 -22z"/>
<path d="M4460 1141 c0 -38 11 -41 126 -41 116 0 133 7 102 38 -14 14 -228 17
-228 3z"/>
<path d="M4772 1125 l11 -25 184 0 c100 0 183 4 183 8 0 5 -8 16 -18 25 -16
15 -45 17 -195 17 l-177 0 12 -25z"/>
<path d="M1677 1072 c-35 -39 -24 -44 98 -40 100 3 116 5 129 23 9 11 16 23
16 28 0 4 -51 7 -113 7 -98 0 -116 -3 -130 -18z"/>
<path d="M1977 1072 c-36 -39 -24 -44 99 -40 101 3 117 6 130 22 8 11 14 23
14 28 0 4 -51 8 -113 8 -98 0 -116 -3 -130 -18z"/>
<path d="M2276 1074 c-36 -36 -21 -44 82 -44 118 0 136 5 151 36 l11 24 -115
0 c-90 0 -117 -3 -129 -16z"/>
<path d="M2576 1074 c-46 -45 -67 -44 792 -44 444 0 813 4 821 9 8 5 11 16 6
30 l-6 21 -799 0 c-713 0 -800 -2 -814 -16z"/>
<path d="M4257 1083 c-3 -5 -1 -18 4 -30 8 -22 14 -23 106 -23 54 0 108 3 120
6 19 5 20 9 11 30 -11 23 -15 24 -124 24 -62 0 -115 -3 -117 -7z"/>
<path d="M4770 1085 c0 -3 7 -17 16 -30 15 -23 22 -25 95 -25 74 0 108 12 79
30 -6 4 -10 11 -8 16 1 5 -39 10 -89 12 -51 1 -93 0 -93 -3z"/>
<path d="M4572 1048 c5 -14 116 -23 155 -13 52 13 19 25 -68 25 -68 0 -90 -3
-87 -12z"/>
<path d="M5012 1048 c5 -14 125 -23 166 -13 48 12 7 25 -79 25 -68 0 -90 -3
-87 -12z"/>
<path d="M1240 739 c152 -62 23 -59 2182 -59 2163 0 2051 -3 2193 59 l70 30
-2260 0 -2260 0 75 -30z"/>
<path d="M1415 510 c4 -6 11 -8 16 -5 14 9 11 15 -7 15 -8 0 -12 -5 -9 -10z"/>
<path d="M870 361 l-145 -98 -174 58 c-96 32 -176 57 -178 55 -3 -2 20 -12 49
-22 29 -9 82 -28 118 -41 36 -13 91 -33 122 -44 l58 -21 144 96 c119 79 173
119 154 115 -2 0 -68 -44 -148 -98z"/>
<path d="M2667 398 c-3 -24 -5 -43 -4 -44 1 -1 16 -5 33 -8 30 -7 31 -6 38 35
7 46 -2 59 -40 59 -18 0 -22 -8 -27 -42z"/>
<path d="M1155 339 c-16 -4 -42 -10 -57 -13 -24 -5 -28 -12 -28 -39 0 -25 7
-37 35 -56 l35 -23 65 17 c83 23 104 37 89 62 -17 28 -104 61 -139 52z"/>
</g>
</svg>
